# AST/ASF file generated using VICON BodyLanguage
# -----------------------------------------------
:version 1.10
:name VICON
:units
  mass 1.0
  length 0.45
  angle deg
:documentation
   .ast/.asf automatically generated from VICON data using
   VICON BodyBuilder and BodyLanguage model FoxedUp or BRILLIANT.MOD
:root
   order TX TY TZ RX RY RZ
   axis XYZ
   position 0 0 0  
   orientation 0 0 0 
:bonedata
  begin
     id 1 
     name lhipjoint
     direction 0.561001 -0.76473 0.316963 
     length 2.4722 
     axis 0 0 0  XYZ
  end
  begin
     id 2 
     name lfemur
     direction 0.34202 -0.939693 0  
     length 7.59403  
     axis 0 0 20  XYZ
    dof rx ry rz
    limits (-160.0 20.0)
           (-70.0 70.0)
           (-60.0 70.0)
  end
  begin
     id 3 
     name ltibia
     direction 0.34202 -0.939693 0   
     length 7.89655   
     axis 0 0 20   XYZ
    dof rx
    limits (-10.0 170.0)
  end
  begin
     id 4 
     name lfoot
     direction 0.061296 -0.168409 0.98381   
     length 2.73287   
     axis -90 7.62852e-016 20   XYZ
    dof rx rz
    limits (-45.0 90.0)
           (-70.0 20.0)
  end
  begin
     id 5 
     name ltoes
     direction 1.53547e-011 -4.21984e-011 1   
     length 1.37057   
     axis -90 7.62852e-016 20   XYZ
    dof rx
    limits (-90.0 20.0)
  end
  begin
     id 6 
     name rhipjoint
     direction -0.559611 -0.765599 0.317323   
     length 2.46939  
     axis 0 0 0  XYZ 
  end
  begin
     id 7 
     name rfemur
     direction -0.34202 -0.939693 0   
     length 7.53712   
     axis 0 0 -20   XYZ
    dof rx ry rz
    limits (-160.0 20.0)
           (-70.0 70.0)
           (-70.0 60.0)
  end
  begin
     id 8 
     name rtibia
     direction -0.34202 -0.939693 0   
     length 8.12549   
     axis 0 0 -20   XYZ
    dof rx
    limits (-10.0 170.0)
 end
 begin
     id 9 
     name rfoot
     direction -0.066984 -0.184037 0.980634   
     length 2.67541  
     axis -90 -7.62852e-016 -20   XYZ
    dof rx rz
    limits (-45.0 90.0)
           (-20.0 70.0)
  end
  begin
     id 10 
     name rtoes
     direction -1.53549e-011 -4.21786e-011 1   
     length 1.34085   
     axis -90 -7.62852e-016 -20   XYZ
    dof rx
    limits (-90.0 20.0)
  end
  begin
     id 11 
     name lowerback
     direction -0.0522728 0.992594 -0.109658   
     length 2.05633   
     axis 0 0 0   XYZ
    dof rx ry rz
    limits (-20.0 45.0)
           (-30.0 30.0)
           (-30.0 30.0)
  end
  begin
     id 12 
     name upperback
     direction 0.00589338 0.999977 0.00335704   
     length 2.05845   
     axis 0 0 0   XYZ
    dof rx ry rz
    limits (-20.0 45.0)
           (-30.0 30.0)
           (-30.0 30.0)
  end
  begin
     id 13 
     name thorax
     direction 0.0292928 0.998059 0.0549487   
     length 2.09281   
     axis 0 0 0   XYZ
    dof rx ry rz
    limits (-20.0 45.0)
           (-30.0 30.0)
           (-30.0 30.0)
  end
  begin
     id 14 
     name lowerneck
     direction 0.0356368 0.980775 0.191858   
     length 1.84767   
     axis 0 0 0   XYZ
    dof rx ry rz
    limits (-20.0 45.0)
           (-30.0 30.0)
           (-30.0 30.0)
  end
  begin
     id 15 
     name upperneck
     direction -0.0227605 0.98931 -0.14404   
     length 1.89582   
     axis 0 0 0   XYZ
    dof rx ry rz
    limits (-20.0 45.0)
           (-30.0 30.0)
           (-30.0 30.0)
  end
  begin
     id 16
     name head
     direction -0.00932985 0.997511 -0.0698904  
     length 1.90213  
     axis 0 0 0   XYZ
    dof rx ry rz
    limits (-20.0 45.0)
           (-30.0 30.0)
           (-30.0 30.0)
  end
  begin
     id 17 
     name lclavicle
     direction 0.873442 0.479511 0.0846686  
     length 3.41193  
     axis 0 0 0   XYZ
    dof ry rz
    limits (-20.0 10.0)
           (0.0 20.0)
  end
  begin
     id 18 
     name lhumerus
     direction 1 -4.4897e-011 -5.62117e-018   
     length 5.59864   
     axis 180 -30 -90   XYZ
    dof rx ry rz
    limits (-60.0 90.0)
           (-90.0 90.0)
           (-90.0 90.0)
  end
  begin
     id 19
     name lradius
     direction 1 -4.48966e-011 -6.26295e-027   
     length 3.59542   
     axis 180 -30 -90   XYZ
    dof rx
    limits (-10.0 170.0)
  end
  begin
     id 20
     name lwrist
     direction 1 -4.48947e-011 -1.74096e-026   
     length 1.79771   
     axis 1.04567e-014 90 90   XYZ
    dof ry
    limits (-180.0 0.0)
 end
  begin
     id 21 
     name lhand
     direction 1 -4.49085e-011 -3.48469e-026   
     length 0.572014   
     axis 2.22196e-014 90 90   XYZ
    dof rx rz
    limits (-90.0 90.0)
           (-45.0 45.0)
  end
  begin
     id 22 
     name lfingers
     direction 1 -4.48884e-011 -6.96135e-026   
     length 0.461173   
     axis 4.44383e-014 90 90   XYZ
    dof rx
    limits (0.0 90.0)
  end
  begin
     id 23
     name lthumb
     direction 0.707107 -6.34976e-011 0.707107   
     length 0.662154   
     axis -90 45 -5.4397e-014   XYZ
    dof rx rz
    limits (-45.0 45.0)
           (-45.0 45.0)
  end
  begin
     id 24 
     name rclavicle
     direction -0.890242 0.443271 0.104786   
     length 3.46753  
     axis 0 0 0   XYZ 
    dof ry rz
    limits (-10.0 20.0)
           (-20.0 0.0)
  end
  begin
     id 25 
     name rhumerus
     direction -1 -4.48963e-011 -5.41723e-018  
     length 5.8094   
     axis 180 30 90   XYZ
    dof rx ry rz
    limits (-90.0 60.0)
           (-90.0 90.0)
           (-90.0 90.0)
  end
  begin
     id 26 
     name rradius
     direction -1 -4.48958e-011 -6.51059e-027   
     length 3.66953   
     axis 180 30 90   XYZ
    dof rx
    limits (-10.0 170.0)
  end
  begin
     id 27 
     name rwrist
     direction -1 -4.48975e-011 -1.74124e-026   
     length 1.83476   
     axis 1.04567e-014 -90 -90   XYZ
    dof ry
    limits (-180.0 0.0)
  end
  begin
     id 28
     name rhand
     direction -1 -4.49013e-011 -3.48326e-026   
     length 0.57843   
     axis 2.22196e-014 -90 -90   XYZ
    dof rx rz
    limits (-90.0 90.0)
           (-45.0 45.0)
  end
  begin
     id 29
     name rfingers
     direction -1 -4.49023e-011 -6.9669e-026   
     length 0.466345   
     axis 4.44383e-014 -90 -90   XYZ
    dof rx
    limits (0.0 90.0)
  end
  begin
     id 30
     name rthumb
     direction -0.707107 -6.34926e-011 0.707107   
     length 0.669581   
     axis -90 -45 5.4397e-014   XYZ
    dof rx rz
    limits (-45.0 45.0)
           (-45.0 45.0)
  end
:hierarchy
  begin
    root lhipjoint rhipjoint lowerback
    lhipjoint lfemur
    lfemur ltibia
    ltibia lfoot
    lfoot ltoes
    rhipjoint rfemur
    rfemur rtibia
    rtibia rfoot
    rfoot rtoes
    lowerback upperback
    upperback thorax
    thorax lowerneck lclavicle rclavicle
    lowerneck upperneck
    upperneck head
    lclavicle lhumerus
    lhumerus lradius
    lradius lwrist
    lwrist lhand lthumb
    lhand lfingers
    rclavicle rhumerus
    rhumerus rradius
    rradius rwrist
    rwrist rhand rthumb
    rhand rfingers
  end

#!OML:ASF H:\SkateBoarding\Project 1\Capture day 1\Session 1\Skater.ASF
:FULLY-SPECIFIED
:DEGREES
17
root -13.8829 18.8075 -31.5358 14.8528 72.6211 10.8848
lowerback 17.1024 -4.90712 -5.11768
upperback 1.79464 -7.36763 -0.416468
thorax -7.00841 -3.39346 4.06288
lowerneck -16.6021 -5.15076 3.13522
upperneck 40.827 -7.73096 -0.950528
head 17.7243 -2.44139 -2.38314
rclavicle -6.11263e-014 1.03368e-014
rhumerus -50.2545 15.535 -68.4708
rradius 90.4483
rwrist -8.65607
rhand -46.2476 1.01513
rfingers 7.12502
rthumb -18.9838 -28.0785
lclavicle -6.11263e-014 1.03368e-014
lhumerus -7.21592 -47.4513 99.9816
lradius 64.6238
lwrist 24.1437
lhand -37.8529 -0.000509035
lfingers 7.12502
lthumb -10.8973 29.6967
rfemur -29.1335 -6.83116 19.6315
rtibia 60.5855
rfoot -49.9261 -6.82428
rtoes -8.23871
lfemur -20.259 1.85573 -16.4883
ltibia 63.8103
lfoot -44.537 4.96922
ltoes -27.2465
18
root -13.8824 18.8269 -31.078 15.4309 74.7991 11.3776
lowerback 16.871 -5.20832 -5.11663
upperback 1.7307 -7.74826 -0.308296
thorax -6.89872 -3.58283 4.23156
lowerneck -16.4077 -5.36312 2.99307
upperneck 40.967 -8.04728 -0.765046
head 17.7669 -2.54991 -2.32694
rclavicle 8.34896e-015 -9.93923e-015
rhumerus -51.7815 14.9461 -69.1797
rradius 90.54
rwrist -8.5498
rhand -45.8975 1.00171
rfingers 7.12502
rthumb -18.6471 -28.1245
lclavicle 8.34896e-015 -9.93923e-015
lhumerus -8.20557 -47.3505 100.503
lradius 64.097
lwrist 23.7541
lhand -37.7925 -0.321801
lfingers 7.12502
lthumb -10.8391 29.3785
rfemur -28.7102 -6.51671 19.6241
rtibia 60.3949
rfoot -50.302 -7.16641
rtoes -8.05771
lfemur -20.1062 0.787706 -16.38
ltibia 62.9097
lfoot -45.1566 4.59261
ltoes -27.3958
19
root -13.88 18.8433 -30.6208 16.0587 76.8915 11.8853
lowerback 16.6224 -5.50631 -5.10857
upperback 1.64706 -8.12542 -0.207445
thorax -6.80164 -3.77071 4.38422
lowerneck -16.2105 -5.55695 2.83925
upperneck 41.1047 -8.34064 -0.559507
head 17.8127 -2.64844 -2.255
rclavicle 2.66371e-014 1.70955e-014
rhumerus -53.2504 14.378 -69.8801
rradius 90.5979
rwrist -8.45697
rhand -45.4719 1.09678
rfingers 7.12502
rthumb -18.2377 -28.0682
lclavicle 2.66371e-014 1.70955e-014
lhumerus -9.13378 -47.1378 100.95
lradius 63.6085
lwrist 23.3223
lhand -37.7722 -0.671068
lfingers 7.12502
lthumb -10.8196 29.0302
rfemur -28.3024 -5.88577 19.5416
rtibia 60.2496
rfoot -50.5449 -7.2197
rtoes -7.70435
lfemur -19.9092 -0.412534 -16.1287
ltibia 61.9683
lfoot -45.4578 3.41393
ltoes -26.994
20
root -13.8759 18.8577 -30.1636 16.7526 78.8841 12.4155
lowerback 16.348 -5.79524 -5.10323
upperback 1.54285 -8.4928 -0.11379
thorax -6.7129 -3.95394 4.52413
lowerneck -16.0053 -5.73192 2.66634
upperneck 41.2336 -8.61196 -0.323262
head 17.8582 -2.73746 -2.16094
rclavicle 7.20594e-014 -5.96354e-015
rhumerus -54.6555 13.8341 -70.5718
rradius 90.6188
rwrist -8.39021
rhand -45.1279 1.13552
rfingers 7.12502
rthumb -17.9067 -28.0601
lclavicle 7.20594e-014 -5.96354e-015
lhumerus -9.99216 -46.8194 101.317
lradius 63.1597
lwrist 22.8707
lhand -37.7665 -1.02413
lfingers 7.12502
lthumb -10.8141 28.6775
rfemur -27.9023 -4.93663 19.3875
rtibia 60.1278
rfoot -50.6419 -6.99077
rtoes -7.22865
lfemur -19.7317 -1.65054 -15.7602
ltibia 60.9873
lfoot -45.425 1.7658
ltoes -26.2712
21
root -13.8699 18.8713 -29.7063 17.5539 80.773 13.0027
lowerback 16.0429 -6.07368 -5.10236
upperback 1.41661 -8.84871 -0.0282545
thorax -6.63154 -4.13167 4.65039
lowerneck -15.7938 -5.88715 2.47432
upperneck 41.3535 -8.86016 -0.0561033
head 17.9036 -2.81658 -2.04451
rclavicle -6.54002e-014 0
rhumerus -55.9967 13.3161 -71.2492
rradius 90.6028
rwrist -8.34074
rhand -44.835 1.19577
rfingers 7.12502
rthumb -17.6249 -28.0254
lclavicle -6.54002e-014 0
lhumerus -10.7829 -46.3953 101.605
lradius 62.7522
lwrist 22.4067
lhand -37.7535 -1.35524
lfingers 7.12502
lthumb -10.8015 28.347
rfemur -27.5089 -3.69807 19.1727
rtibia 60.0094
rfoot -50.5772 -6.49569
rtoes -6.67784
lfemur -19.6247 -2.85703 -15.3061
ltibia 60.0039
lfoot -45.0747 -0.100384
ltoes -25.2399
